<svg id="レイヤー_1" data-name="レイヤー 1" xmlns="http://www.w3.org/2000/svg" viewBox="0 0 268 96"><defs><style>.cls-1{fill:none;}.cls-2{fill:#df013a;}.cls-3{fill:#003790;}</style></defs><rect class="cls-1" x="-0.17" width="268.35" height="96"/><path class="cls-2" d="M42.84,36.57l9,6.18a11.42,11.42,0,0,0,7,2.27c5,0,9.44-3.33,9.44-3.33L47.83,27.58S45.6,30,38.6,34.39C31.25,39,27.4,40.3,27.4,40.3L53.86,58.57l-1.18.77-8.82-6.09a11.42,11.42,0,0,0-7-2.27c-5,0-9.44,3.33-9.44,3.33L47.83,68.42s2.23-2.45,9.23-6.81c7.35-4.58,11.2-5.91,11.2-5.91L41.67,37.34Z"/><path class="cls-3" d="M95.21,45c-3.88-.5-7.34-.6-7.43-2-.12-1.78,2.72-2,3.64-2,1.54,0,4,.35,4.63,2.68H106c0-4.47-4.24-8-14.5-8-11.42,0-13.35,5-13.35,7.87,0,5.31,4.11,6.88,13,7.81,3.31.35,5.42.33,5.42,2S94,55.25,93,55.25s-3.71,0-4.61-2.78H77.59c.47,5.22,3.76,8.28,15.37,8.24,10.94,0,13.8-4.46,13.8-7.85S104.51,46.23,95.21,45Z"/><polygon class="cls-3" points="139.17 42.43 152.27 42.43 138.72 55.1 138.72 60.15 166.25 60.15 166.25 54.1 152.55 54.1 166.29 41.46 166.29 36.41 139.17 36.41 139.17 42.43"/><rect class="cls-3" x="231.64" y="36.41" width="8.96" height="23.73"/><polygon class="cls-3" points="218.07 36.41 208.54 44.59 208.54 36.41 199.57 36.41 199.57 60.15 208.54 60.15 208.54 51.73 217.38 60.15 229.44 60.15 216.33 47.98 229.87 36.41 218.07 36.41"/><path class="cls-3" d="M127.62,46.37v3.74c0,2.91-1.06,4.85-5,4.85s-5-1.94-5-4.85V36.41H109v8.65c0,1.14,0,5,0,7.11,0,3,.79,8.88,13.57,8.88s13.54-5.83,13.57-8.88c0-2.14.05-6,.05-7.11V36.41h-8.59Z"/><path class="cls-3" d="M187.9,46.37v3.74c0,2.91-1.06,4.85-5,4.85s-5-1.94-5-4.85V36.41h-8.59v8.65c0,1.14,0,5,.05,7.11,0,3,.78,8.88,13.57,8.88s13.53-5.83,13.56-8.88c0-2.14.05-6,.05-7.11V36.41H187.9Z"/></svg>